<?xml version="1.0" encoding="UTF-8" standalone="no"?>
<!-- Created with Inkscape (http://www.inkscape.org/) -->

<svg
   version="1.1"
   id="svg1791"
   width="1256"
   height="1126.6667"
   viewBox="0 0 1256 1126.6667"
   sodipodi:docname="Shark5c.svg"
   inkscape:version="1.2.2 (732a01da63, 2022-12-09, custom)"
   xmlns:inkscape="http://www.inkscape.org/namespaces/inkscape"
   xmlns:sodipodi="http://sodipodi.sourceforge.net/DTD/sodipodi-0.dtd"
   xmlns="http://www.w3.org/2000/svg"
   xmlns:svg="http://www.w3.org/2000/svg">
  <defs
     id="defs1795" />
  <sodipodi:namedview
     id="namedview1793"
     pagecolor="#ffffff"
     bordercolor="#000000"
     borderopacity="0.25"
     inkscape:showpageshadow="2"
     inkscape:pageopacity="0.0"
     inkscape:pagecheckerboard="0"
     inkscape:deskcolor="#d1d1d1"
     showgrid="false"
     inkscape:zoom="0.73491119"
     inkscape:cx="610.95818"
     inkscape:cy="563.33337"
     inkscape:window-width="1920"
     inkscape:window-height="1031"
     inkscape:window-x="0"
     inkscape:window-y="25"
     inkscape:window-maximized="1"
     inkscape:current-layer="layer9" />
  <g
     inkscape:groupmode="layer"
     id="layer1"
     inkscape:label="Layer 1"
     style="display:inline">
    <path
       style="fill:#000000;stroke-width:1.33333"
       d="M 610.66667,1119.2075 C 478.90461,1111.9661 363.09792,1068.4587 262.57115,988.43167 239.57672,970.12632 195.27376,925.82931 176.79468,902.66669 127.5236,840.90781 92.736519,771.75352 73.386159,697.09774 32.740863,540.28378 65.763839,373.06069 163.25821,242.00001 255.78155,117.62183 395.15056,35.830945 552.66667,13.469559 585.25564,8.8431457 608.42316,7.6239737 649.764,8.3598893 702.07851,9.2911489 736.42325,13.784031 786,26.181891 c 127.43829,31.86902 243.39,107.974539 320.9113,210.631819 59.9238,79.35386 95.2604,167.21461 107.9954,268.51964 2.3874,18.99095 2.3864,97.02108 0,116 -10.3977,82.64239 -35.0753,154.55682 -76.4157,222.68698 -36.6635,60.4223 -91.0912,119.35475 -149.15637,161.50137 -87.69472,63.6533 -189.53734,101.731 -298.89644,111.7536 -15.81556,1.4495 -66.30225,2.6723 -79.77022,1.9322 z"
       id="path1909" />
    <path
       style="fill:#00aad4;stroke-width:1.33333"
       d="m 697.33333,1108.6144 c 219.22802,-22.6975 403.68717,-161.22936 478.76947,-359.56356 15.8018,-41.7415 26.4215,-87.19182 31.2436,-133.71749 2.4128,-23.27949 2.7789,-73.95531 0.6983,-96.66667 C 1198.2605,411.8616 1158.4573,313.37186 1091.115,229.33334 1074.1583,208.17262 1041.3078,174.12497 1020.866,156.5243 921.5532,71.014713 794.86976,21.459479 662,16.145346 560.69289,12.093561 463.64741,32.508876 374,76.731485 206.98859,159.11735 92.232813,316.00964 68.797127,494.00001 46.774593,661.25773 105.3563,827.8606 228.2284,947.41301 c 98.96095,96.28729 228.75945,153.24279 372.04611,163.25379 22.55378,1.5757 72.14469,0.5271 97.05882,-2.0524 z"
       id="path1937" />
    <g
       id="layer9"
       inkscape:label="Shark2">
      <path
         style="display:inline;fill:#000000;stroke-width:1.33333"
         d="m 678.71051,995.16564 c -14.54307,-12.23718 -19.5137,-52.87811 -11.53446,-94.30827 4.18434,-21.72606 6.9877,-30.54693 14.94794,-47.03414 5.55641,-11.50846 5.88326,-12.82574 5.95494,-24.00001 0.12067,-18.80509 2.26683,-34.0001 8.05287,-57.01412 10.09728,-40.1619 20.76519,-69.58947 36.45968,-100.57441 5.54135,-10.94007 10.07501,-20.71835 10.07479,-21.72952 -2.2e-4,-1.01116 -2.07387,-7.63924 -4.60812,-14.72906 -15.94682,-44.61287 -23.40242,-89.77175 -23.38376,-141.63639 0.012,-32.24789 3.23136,-46.33092 10.79325,-47.20907 4.89795,-0.56878 8.63641,4.13778 26.88295,33.84436 24.3808,39.69361 29.6001,46.76407 40.98274,55.51831 5.5,4.22998 10.62179,7.69443 11.38174,7.69879 1.51285,0.008 18.26837,-27.33544 27.77386,-45.32543 18.37328,-34.77309 25.4452,-68.57128 24.61344,-117.63292 -0.50974,-30.06771 -0.0143,-28.78123 -15.28862,-39.70042 -13.71996,-9.80802 -16.48042,-12.58952 -16.48042,-16.60606 0,-3.5132 2.34847,-6.5056 8.01718,-10.21542 l 3.29261,-2.15481 -7.81713,-10.20596 c -14.78956,-19.30909 -40.74574,-40.9515 -70.72328,-58.9695 -12.33975,-7.41678 -33.19554,-15.9031 -33.89872,-13.79354 -1.50787,4.5236 -17.74043,36.21354 -36.16962,70.61196 -11.59021,21.63333 -24.46136,45.7634 -28.60256,53.62237 -10.0875,19.14364 -12.90612,22.37763 -19.50342,22.37763 -3.74214,0 -5.54814,-0.71048 -6.54614,-2.57525 -3.72812,-6.96606 -6.43066,-26.73958 -8.98748,-65.75808 l -0.67713,-10.33334 h 4.80784 4.80785 v -11.41817 c 0,-7.05878 1.29035,-17.62175 3.37971,-27.66667 8.38828,-40.32812 11.77032,-64.84724 11.80475,-85.58183 0.0328,-19.77103 -0.0219,-20.14501 -4.77182,-32.66667 -10.93816,-28.83447 -20.40748,-50.332592 -25.37666,-57.612447 -7.08718,-10.382727 -15.6565,-29.938575 -15.682,-35.787552 -0.0419,-9.603748 4.8687,-10.197489 20.27482,-2.451445 24.1303,12.13248 49.21952,31.55965 67.37579,52.170654 12.104,13.74047 30.16472,40.51675 38.16256,56.57867 3.34971,6.72718 6.67524,12.59268 7.39005,13.03447 0.71483,0.44179 9.39688,2.24951 19.29346,4.01718 33.4178,5.96884 68.48492,16.07966 98.14934,28.29917 45.73468,18.83923 95.35964,53.5038 124.41728,86.90932 40.30279,46.33328 68.93019,102.16974 84.17279,164.17533 7.6747,31.21985 9.3684,46.12269 9.3193,82 -0.04,29.44456 -0.3258,33.32748 -3.5757,48.62311 -1.9425,9.1427 -3.4123,16.71893 -3.2661,16.83606 0.5408,0.4333 27.1588,-3.34006 33.5991,-4.763 3.6667,-0.81012 18.0667,-5.1327 32,-9.60573 30.055,-9.64859 41.6635,-11.22384 47.6667,-6.46824 6.0631,4.80315 5.0862,9.99901 -4.1922,22.29573 -16.2733,21.56723 -40.9219,44.94798 -69.9069,66.31115 -15.9028,11.72103 -49.8077,32.053 -73.4859,44.06775 l -21.2515,10.78347 -5.4151,8.76594 c -20.08274,32.50997 -47.12198,74.32373 -57.27459,88.56999 -15.10344,21.19334 -45.61106,55.01239 -68.88256,76.35942 -41.2587,37.84676 -60.69911,51.05433 -119.25795,81.02239 -43.40325,22.21204 -49.44325,24.53531 -63.78648,24.53531 -10.29803,0 -11.72532,-0.32232 -15.50301,-3.50106 z"
         id="path2007" />
      <path
         id="path2009"
         style="display:inline;fill:#aca793;stroke-width:1.33333"
         d="M 612.61523 50.939453 C 611.55897 51.995725 622.1541 72.505941 627.07031 78.921875 C 631.91386 85.242931 650.97569 131.37169 656.16406 149.32812 C 660.35946 163.84792 659.60244 183.2959 653.38281 220.80273 C 650.47673 238.32768 646.87671 258.5818 645.38281 265.8125 C 643.80087 273.46932 642.66602 284.07648 642.66602 291.21289 C 642.66602 304.66958 641.75109 306.66602 635.57812 306.66602 C 632.17628 306.66602 631.79725 307.0417 632.55859 309.66602 C 633.03725 311.316 634.00924 318.66669 634.7168 326 C 637.13645 351.07822 638.80344 363.33336 639.95117 364.48242 C 641.51298 366.046 645.36447 359.72902 660.97461 330 C 668.29072 316.06669 680.73342 292.49386 688.625 277.61719 C 696.51657 262.74049 705.60203 244.74045 708.81641 237.61719 C 714.03476 226.05293 714.43376 224.49685 712.53125 223.08789 C 709.17361 220.60133 711.61993 218.66602 718.12109 218.66602 C 734.78101 218.66602 771.59211 238.29379 802.29102 263.54297 C 815.46173 274.37561 834.21627 294.11068 840.95898 304.23438 C 843.46446 307.99616 845.41038 309.33648 849.32617 309.99805 C 855.65881 311.06795 857.34318 313.00683 861.79492 324.34766 C 865.89791 334.80004 865.87413 334.66602 863.58203 334.66602 C 861.28432 334.66602 855.53901 328.45786 852.78516 323 C 851.19069 319.83993 849.69068 318.66602 847.24609 318.66602 C 843.37963 318.66602 833.33398 323.4526 833.33398 325.29492 C 833.33398 325.97781 837.384 329.18527 842.33398 332.42188 C 856.58348 341.73905 865.33398 352.76725 865.33398 361.4082 C 865.33398 364.17809 865.99048 366.66415 866.79297 366.93164 C 868.94211 367.64803 870.54341 377.74543 870.60938 391 C 870.65666 400.50728 870.29582 402.66602 868.66602 402.66602 C 867.02284 402.66602 866.61751 399.98981 866.39453 387.66602 C 866.15879 374.63641 866.07904 374.15542 865.7832 384 C 864.51109 426.332 860.25131 451.9989 850.25195 477.57227 C 841.28831 500.49676 837.53797 507.32775 796.21289 576 C 749.581 653.49088 728.481 694.14369 716.97852 728.66602 C 702.79491 771.23512 696.04979 798.18137 696.01758 812.39453 C 696.00308 818.83452 696.54591 820.66701 699.27344 823.39453 C 702.42058 826.54169 703.2274 826.66602 720.30664 826.66602 C 735.58692 826.66602 740.389 826.09916 754.69922 822.59766 C 763.84747 820.35921 779.27506 817.05669 788.98047 815.25977 C 810.83562 811.2133 822.99181 806.78082 828.88867 800.70898 C 831.33345 798.19171 833.33398 795.48191 833.33398 794.6875 C 833.33398 793.89309 835.43333 792.00461 838 790.49023 C 840.56667 788.97588 842.66602 787.28428 842.66602 786.73047 C 842.66602 784.80735 849.21761 778.66602 851.26953 778.66602 C 854.45339 778.66602 853.71267 783.18985 850 786.41797 C 848.16667 788.01204 846.66602 790.09053 846.66602 791.03711 C 846.66602 791.98367 843.34094 796.03666 839.27734 800.04492 C 835.21376 804.0532 830.17509 810.36817 828.07812 814.07812 C 811.61072 843.21235 738.61068 876.15263 708.83398 867.88477 C 705.99258 867.09581 702.39256 866.21877 700.83398 865.9375 C 699.27543 865.65623 696.05537 863.21184 693.67773 860.50391 L 689.35352 855.58008 L 684.60547 865.85938 C 671.73263 893.72096 666.6668 943.03164 674.46094 964.62109 C 676.04024 968.99568 677.37619 974.69503 677.42773 977.28711 C 677.50133 980.98756 677.74458 981.4278 678.5625 979.33398 C 679.47062 977.00932 680.61475 976.72367 687.48828 977.10547 C 694.51289 977.49567 696.30616 977.01477 703.92383 972.70898 C 712.55166 967.83224 718 967.02403 718 970.62109 C 718 971.69647 713.20065 975.23842 707.33398 978.49023 C 695.82629 984.86882 686.61309 986.82657 681.35352 984.01172 C 678.38313 982.42202 678.36614 982.4532 680.48242 985.47461 C 686.50665 994.07538 696.2515 994.17764 717.20312 985.86328 C 732.94918 979.6147 784.00164 952.95866 803.33398 940.89062 C 865.72808 901.94174 922.44805 843.91186 964.11328 776.40039 C 969.45412 767.74647 978.82339 752.6261 984.93359 742.79883 C 991.04383 732.97156 995.77935 724.66803 995.45898 724.34766 C 995.1386 724.02727 989.81373 725.41423 983.625 727.42969 C 972.12281 731.17552 967.46768 731.07814 968.23438 727.10352 C 968.53197 725.56072 975.09273 722.44959 989.33398 717.09766 C 1014.3183 707.70843 1029.2641 700.6133 1050.9375 687.85938 C 1093.3945 662.87518 1123.267 640.66006 1146.0273 617.14062 C 1159.9799 602.72269 1173.2984 585.97883 1173.3203 582.82812 C 1173.3423 579.67443 1159.3397 582.19533 1135.7285 589.5957 C 1088.2722 604.46981 1097.3188 603.07824 1044.1973 603.66406 L 997.06055 604.18359 L 990.38086 618.42578 C 981.12351 638.16013 977.33398 642.09029 977.33398 631.95703 C 977.33398 623.76361 984.69012 606.12145 990.77344 599.72656 L 995.95898 594.27539 L 1020.3125 595.20508 C 1033.7069 595.71716 1046.7674 596.45872 1049.334 596.85156 L 1054 597.56641 L 1057.2871 583.11523 C 1060.1593 570.49173 1060.6371 564.70786 1061.0703 537.33398 C 1061.3678 518.54438 1060.9497 500.92979 1060.0254 493.33398 C 1052.6589 432.79447 1026.13 367.41826 987.03516 313.4668 C 978.03197 301.04223 943.02245 263.2002 941.72852 264.49414 C 941.46143 264.76124 941.8231 267.60828 942.5332 270.82227 C 943.59523 275.62863 949.33398 316.44298 949.33398 319.19141 C 949.33398 321.0178 945.33842 319.82966 944.20312 317.66602 C 943.52976 316.38268 941.95734 309.03398 940.70898 301.33398 C 938.00628 284.66348 935.10076 272.65405 932.6543 268.03516 L 930.87109 264.66602 L 928.13086 270.66602 C 924.81304 277.93251 924.68208 281.61538 927.45117 289.74219 C 928.61614 293.1612 929.34922 296.61834 929.08008 297.42578 C 928.3396 299.64723 921.81619 292.50559 918.69336 286.05469 C 915.66219 279.79313 915.66966 279.73927 922.26562 265 C 924.15262 260.78333 926.51579 257.33398 927.51562 257.33398 C 933.62274 257.33398 926.28731 251.36203 899.02539 234.14062 C 862.7339 211.21523 803.56858 189.53902 754.90625 181.33984 C 736.73713 178.27853 729.2711 176.07538 719.33398 170.84375 L 712.66602 167.33398 L 718.33398 166.92383 C 721.45065 166.69833 724 166.1484 724 165.70312 C 724 165.25787 721.51506 160.36676 718.47852 154.83398 C 693.05527 108.51154 663.19343 77.615616 622.26953 55.294922 C 617.28411 52.575769 612.93918 50.615504 612.61523 50.939453 z M 816.33008 204.5332 C 817.75742 204.49356 819.24695 204.94668 820.73828 205.92383 C 824.62496 208.47048 838.63346 235.89654 838.6543 241 C 838.6707 245.03581 836.73336 244.78117 833.59375 240.33398 C 832.17003 238.31733 829.15898 233.066 826.9043 228.66602 C 824.64961 224.26602 821.60152 218.89428 820.13086 216.72852 C 817.85721 213.38023 817.32645 213.13311 816.58008 215.07812 C 815.70451 217.35984 816.23764 221.98301 818.03125 227.66602 C 818.72115 229.85188 818.44309 230.66602 817.00586 230.66602 C 813.1751 230.66602 790.56707 217.02649 787.30078 212.74414 C 780.16002 203.38213 785.32838 202.73045 797.13477 211.50391 C 801.70123 214.8973 805.65133 217.44666 805.91211 217.16992 C 806.1729 216.89317 807.31807 214.41828 808.45703 211.66992 C 810.35113 207.09942 813.18993 204.62042 816.33008 204.5332 z M 842.4043 248 C 845.17924 248 853.83463 256.38803 852.46875 257.75391 C 850.96679 259.25584 848.90214 258.77122 844.33398 255.8457 C 839.61336 252.82254 838.42658 248 842.4043 248 z M 948.06836 321.33398 C 949.88415 321.33398 953.33398 329.60361 953.33398 333.95703 C 953.33398 338.34522 950.21777 338.33347 948.21484 333.9375 C 946.2845 329.70082 946.18707 321.33398 948.06836 321.33398 z M 965.29883 364 C 971.39039 364 980.42488 407.88246 984.69141 458.19336 C 987.01582 485.60306 986.94944 492.14922 984.33398 493.00781 C 983.41734 493.30873 982.66602 493.25286 982.66602 492.88281 C 982.66602 492.51269 981.75216 480.91309 980.63477 467.10547 C 978.01018 434.67413 972.97506 400.62383 967.9707 381.4707 C 963.54768 364.54251 963.46415 364 965.29883 364 z M 868 406.66602 C 868.73333 406.66602 869.33398 408.16667 869.33398 410 C 869.33398 411.83334 868.73333 413.33398 868 413.33398 C 867.26667 413.33398 866.66602 411.83334 866.66602 410 C 866.66602 408.16667 867.26667 406.66602 868 406.66602 z M 726.43945 459.25391 C 726.32716 459.29174 726.24786 459.39283 726.19922 459.55859 C 720.90381 477.60295 721.5421 530.7222 727.47852 566 C 730.75597 585.47664 743.97041 634.2824 747.63672 640.44922 C 748.61642 642.09711 749.02942 641.47118 764.65234 614.66602 C 772.55944 601.09937 783.496 582.64443 788.95508 573.6543 C 794.41416 564.66418 798.68164 556.77122 798.43945 556.11523 C 798.19728 555.45926 792.72194 550.3203 786.27148 544.69336 C 772.49457 532.67533 768.93038 528.01983 755.10352 504 C 737.03345 472.60896 728.1238 458.68638 726.43945 459.25391 z M 985.33398 505.33398 C 986.06732 505.33398 986.66602 506.234 986.66602 507.33398 C 986.66602 508.43398 986.06732 509.33398 985.33398 509.33398 C 984.60067 509.33398 984 508.43398 984 507.33398 C 984 506.234 984.60067 505.33398 985.33398 505.33398 z M 984.63086 513.62891 C 985.59601 514.2404 985.21135 565.10769 984.17578 569.89062 C 983.71254 572.03012 982.5289 574.04762 981.54492 574.375 C 980.11814 574.8497 979.92134 573.25137 980.57812 566.48438 C 981.03109 561.8175 981.95029 548.18672 982.61914 536.19336 C 983.288 524.19999 984.17182 514.05084 984.58398 513.63867 C 984.59999 513.62267 984.61554 513.6192 984.63086 513.62891 z M 980 582.66602 C 980.73333 582.66602 981.33398 584.13183 981.33398 585.92188 C 981.33398 587.71192 980.73333 589.54677 980 590 C 979.22211 590.48077 978.66602 589.12569 978.66602 586.74609 C 978.66602 584.50283 979.26667 582.66602 980 582.66602 z M 918 721.33398 C 919.1 721.33398 920 722.2744 920 723.42383 C 920 724.91215 920.774 725.26748 922.6875 724.66016 C 925.61776 723.73014 932.23363 727.27908 939.55469 733.70703 C 943.57111 737.23353 946.66602 737.62757 946.66602 734.61133 C 946.66602 733.93363 943.62755 731.83879 939.91406 729.95703 C 935.20434 727.57041 933.29429 725.84945 933.5957 724.26758 C 934.28643 720.64236 939.59991 720.84559 946.26562 724.75195 C 951.26058 727.6792 952.90029 728.07991 954.86719 726.85156 C 957.37839 725.28328 961.33398 724.79085 961.33398 726.04688 C 961.33398 726.43932 960.42962 728.1382 959.32617 729.82227 C 957.47057 732.65426 957.61967 733.42742 961.30273 740.10938 C 963.49289 744.08282 965.29531 747.78398 965.30859 748.33398 C 965.36749 750.77382 960.41569 748.96844 956.41602 745.0918 C 952.31674 741.11862 948.54768 740.70185 951.38086 744.53516 C 957.87167 753.31724 960.33154 757.91159 960.92969 762.37109 C 961.71708 768.24152 958.91368 770.80632 955.76367 767.09766 C 954.79339 765.95527 952.2 761.34113 950 756.84375 C 946.34936 749.38093 945.66569 748.70248 942.16992 749.07617 C 938.69559 749.44757 938.41613 749.17921 939.16602 746.19141 C 940.10355 742.45597 935.64535 737.91346 926.42383 733.20898 C 923.55268 731.74425 920.86838 729.67429 920.45898 728.60742 C 920.04958 727.54049 918.51549 726.66602 917.04883 726.66602 C 915.16497 726.66602 914.61968 726.04853 915.19141 724.55859 C 915.63654 723.39862 916 722.19731 916 721.89062 C 916 721.58396 916.9 721.33398 918 721.33398 z M 904.55469 733.33398 C 907.91578 733.33398 910.66602 733.82922 910.66602 734.43555 C 910.66602 735.04187 912.36642 735.28919 914.44336 734.98438 C 917.52682 734.53182 919.3614 735.57234 924.44336 740.6543 C 933.68618 749.89712 931.85994 754.13908 921.47852 747.54102 C 918.99133 745.96024 915.23015 743.05324 913.12109 741.08008 C 910.73215 738.84503 907.44826 737.33702 904.41211 737.08008 C 896.96388 736.4497 897.08242 733.33398 904.55469 733.33398 z M 890.29492 750.6875 C 891.28765 750.72108 892 751.05298 892 751.78516 C 892 752.51871 894.23291 752.77999 897.15039 752.38867 C 902.03338 751.73372 903.03256 752.30116 916.38867 763.32227 C 929.91447 774.48331 941.33398 787.86021 941.33398 792.54492 C 941.33398 796.11145 938.87479 794.92321 935.37695 789.66602 C 932.14916 784.81466 921.05598 774.3864 909.84375 765.66211 C 903.04097 760.36882 893.06991 756 887.79102 756 C 884.71398 756 883.9046 755.46669 884.24609 753.66602 C 884.56632 751.97747 888.11092 750.61363 890.29492 750.6875 z M 933.2207 752.41016 C 937.87691 752.49548 950.66602 767.6936 950.66602 773.59375 C 950.66602 778.21703 947.10024 775.93031 940.57617 767.125 C 936.95981 762.24407 933.18176 757.15198 932.18164 755.80859 C 930.61328 753.70196 930.66924 753.24825 932.59375 752.50977 C 932.78091 752.43795 932.99171 752.40596 933.2207 752.41016 z M 913.08203 785.17188 C 913.67871 785.1175 914.06703 785.53509 914.33789 786.34766 C 914.90911 788.06135 895.62198 813.93814 887.51562 822.33398 C 881.09283 828.98615 877.33398 831.0439 877.33398 827.90625 C 877.33398 827.12093 881.18735 822.17091 885.89844 816.90625 C 890.60951 811.6416 898.28121 802.28407 902.94531 796.11328 C 908.67625 788.53106 911.55719 785.31082 913.08203 785.17188 z M 872.77344 832.46484 C 873.21745 832.4614 873.33398 833.10009 873.33398 834.50391 C 873.33398 836.13049 872.48356 837.33398 871.33398 837.33398 C 870.234 837.33398 869.33398 836.8076 869.33398 836.16406 C 869.33398 835.52052 870.234 834.2469 871.33398 833.33398 C 872.0128 832.77061 872.46964 832.4672 872.77344 832.46484 z M 867.44531 838.66602 C 868.60643 838.66602 869.31762 839.37916 869.02734 840.25 C 868.20325 842.7223 865.33398 843.13191 865.33398 840.77734 C 865.33398 839.61623 866.2842 838.66602 867.44531 838.66602 z M 861.89844 844 C 865.90331 844 863.95721 847.44585 855 856.2168 C 840.88321 870.04002 829.33398 877.87548 829.33398 873.62891 C 829.33398 871.70102 859.77954 844 861.89844 844 z M 791.68359 909.33398 C 795.66197 909.33398 792.62124 913.53186 775.40039 931.81641 C 763.73351 944.20391 752 952.4774 752 948.31641 C 752 946.59248 789.9287 909.33398 791.68359 909.33398 z M 746 924 C 748.00439 924 749.33398 924.76156 749.33398 925.91016 C 749.33398 926.96075 750.53333 928.20052 752 928.66602 C 753.46667 929.13153 754.66602 930.67261 754.66602 932.08984 C 754.66602 935.35293 747.8735 935.68405 744.76172 932.57227 C 743.60933 931.4199 742.66602 929.01924 742.66602 927.23828 C 742.66602 924.6732 743.35948 924 746 924 z M 740.00977 954.65234 C 742.46537 954.76048 741.55798 957.79657 735.75781 962 C 726.40169 968.78046 720 971.03 720 967.53906 C 720 965.55212 724.1669 961.33398 726.12891 961.33398 C 726.81759 961.33398 729.58913 959.83333 732.28711 958 C 735.85306 955.57688 738.5364 954.58746 740.00977 954.65234 z " />
      <path
         style="display:inline;fill:#aa0000;stroke-width:1.33333"
         d="m 711.63863,848.66669 c 2.99857,-2.56666 6.07602,-4.66667 6.8388,-4.66667 0.76277,0 3.00854,2.12614 4.9906,4.72474 l 3.60373,4.72475 3.89452,-4.72475 c 2.14199,-2.5986 4.41692,-4.72474 5.05541,-4.72474 0.63848,0 2.19891,1.75725 3.46762,3.90499 1.2687,2.14775 3.35589,4.17936 4.6382,4.5147 2.38301,0.62317 9.20582,-5.30303 9.20582,-7.99605 0,-0.78674 0.88796,-2.16738 1.97324,-3.06809 1.6089,-1.33527 2.74427,-0.98885 6.14918,1.87619 4.80958,4.047 6.13112,3.48187 11.40898,-4.87883 3.72723,-5.90431 5.3847,-6.16837 10.59455,-1.68787 4.89981,4.21387 5.37208,4.18123 9.6246,-0.66504 1.93047,-2.2 4.16408,-4 4.96357,-4 0.79951,0 3.1151,-1.73418 5.14576,-3.85374 6.1954,-6.4666 1.48099,-6.18307 -7.2202,0.43424 -4.40153,3.3474 -8.32474,6.08617 -8.71824,6.08617 -0.39349,0 -2.17605,-1.57604 -3.96126,-3.50231 -3.1928,-3.44509 -3.30611,-3.46388 -6.93634,-1.15073 -2.02977,1.29336 -4.9913,3.9194 -6.58117,5.83564 l -2.89067,3.48407 -3.93996,-3.75386 -3.93996,-3.75385 -5.16937,4.74748 c -5.99228,5.50323 -6.99493,5.69648 -10.86221,2.09356 -3.77423,-3.51623 -4.72266,-3.39107 -10.10346,1.33333 -2.50565,2.2 -5.07653,3.99042 -5.71306,3.97871 -0.63652,-0.012 -3.17867,-1.80303 -5.6492,-3.98069 -4.2564,-3.75182 -6.84144,-4.17994 -6.84144,-1.13306 0,1.76163 -5.48684,6.36591 -7.65538,6.42402 -0.91045,0.0244 -2.40477,-1.15564 -3.32072,-2.62231 -3.78964,-6.06817 -5.1304,-0.62923 -1.59292,6.46182 1.15371,2.31266 2.54572,4.20485 3.09334,4.20485 0.54762,0 3.44906,-2.1 6.44764,-4.66667 z"
         id="path2057" />
      <path
         id="path2069"
         style="display:inline;fill:#e9ddaf;stroke-width:1.33333"
         d="M 788.93164 825.33398 C 786.33002 825.33398 785.61934 825.86115 786.19727 827.36719 C 786.83357 829.02541 787.38098 829.09476 789.15625 827.74414 C 790.35394 826.83294 791.58311 825.91845 791.88867 825.71094 C 792.19422 825.50343 790.86419 825.33398 788.93164 825.33398 z M 769.60547 828 C 767.15619 828 764 829.58111 764 830.80859 C 764 832.71634 767.52258 832.18263 769.33398 830 C 770.33901 828.78903 770.44562 828 769.60547 828 z M 751.6582 832 C 751.31621 832.00154 750.55328 832.18427 749.33398 832.48242 C 747.50066 832.93073 745.51515 833.30443 744.92188 833.31445 C 744.3286 833.32515 744.21279 833.93269 744.66602 834.66602 C 745.78134 836.47065 746.85673 836.29491 750 833.79102 C 751.62572 832.49599 752.22819 831.99743 751.6582 832 z M 706.54102 834.66602 C 704.29183 834.66602 704.12133 835.07012 705.37891 837.41992 C 706.55155 839.61103 707.2379 839.85163 708.74414 838.60156 C 709.78493 837.73779 710.30813 836.49985 709.90625 835.84961 C 709.50438 835.19937 707.99019 834.66602 706.54102 834.66602 z M 728.26758 834.66602 C 725.18758 834.66602 722.66602 835.21644 722.66602 835.88867 C 722.66602 838.69073 729.58798 838.66347 732.59961 835.84961 C 733.35126 835.14732 731.59065 834.66602 728.26758 834.66602 z M 779.53125 838.91602 C 778.3966 838.89264 776.64273 840.18946 775.49609 841.93945 C 772.93862 845.84266 772.89075 845.81259 778.52734 843.84766 C 782.82668 842.34892 783.49577 839.66638 779.75 838.93945 C 779.68023 838.92591 779.60689 838.91757 779.53125 838.91602 z M 757.99219 846.16797 C 757.05091 846.19421 756.09146 847.37719 753.9375 850.20117 C 751.12504 853.8885 750.76568 854.91355 752.52539 854.23828 C 753.82275 853.74044 755.62162 853.33398 756.52148 853.33398 C 757.42133 853.33398 759.21124 852.5615 760.5 851.61914 C 762.72258 849.99394 762.71134 849.78654 760.27539 847.58203 C 759.27145 846.67348 758.63622 846.15002 757.99219 846.16797 z M 717.45508 848.95117 L 712.58203 853.22852 C 708.06128 857.19779 707.91088 857.55968 710.50586 858.23828 C 712.0442 858.64057 713.03331 859.40717 712.70312 859.94141 C 712.37296 860.47565 714.72391 860.95158 717.92773 861 C 722.49629 861.0691 723.8901 860.56247 724.39062 858.64844 C 724.78913 857.12451 723.60717 854.84588 721.24219 852.58008 L 717.45508 848.95117 z M 735.41797 849.64062 L 731.74609 854.48633 C 727.46365 860.13953 727.09791 861.78169 730.33398 860.82031 C 731.61732 860.43904 734.46602 859.71577 736.66602 859.21289 C 742.89411 857.78925 743.09374 857.31638 739.13086 853.35352 L 735.41797 849.64062 z " />
      <path
         style="display:inline;fill:#00d4aa;stroke-width:1.33333"
         d="m 799.55556,931.11113 c -1.43341,-1.4334 -1.02036,-11.03114 0.61105,-14.19876 3.013,-5.85012 6.88066,-8.91234 11.2565,-8.91234 2.68338,0 4.59486,0.79033 5.1009,2.10905 1.67555,4.3664 0.73476,13.33021 -1.84273,17.55761 -2.32872,3.81938 -3.32968,4.33334 -8.43945,4.33334 -3.18856,0 -6.19739,-0.4 -6.68627,-0.8889 z"
         id="path2017" />
    </g>
    <g
       id="layer8"
       inkscape:label="Shark1">
      <path
         style="display:inline;fill:#000000;stroke-width:1.33333"
         d="m 670.66667,1073.4154 c -10.28084,-3.1524 -36.674,-19.4496 -52,-32.1088 -24.71179,-20.4118 -46.14895,-47.71084 -62.21756,-79.23064 -4.13364,-8.10843 -8.14702,-15.15299 -8.91864,-15.65456 -0.77162,-0.50157 -4.43163,-1.30997 -8.13338,-1.79644 C 499.99675,939.44713 450.71691,924.46812 412.66667,906.1042 341.39395,871.70636 292.71279,824.80336 256.81352,755.94384 234.72907,713.58295 221.02827,671.88382 214.58856,627.42982 c -2.53088,-17.47088 -2.80192,-23.82643 -2.21768,-52 0.57905,-27.92267 1.08873,-33.87547 3.91949,-45.77692 l 3.2539,-13.68046 -8.77214,0.7815 C 195.244,518.13731 181.21319,521.43643 156,529.63271 c -20.53264,6.67473 -26.67781,8.12593 -36.66667,8.65892 -11.52739,0.61508 -12.12454,0.50673 -15.16237,-2.75109 -4.899363,-5.25419 -3.15428,-10.27792 8.666,-24.94764 17.71884,-21.99022 38.17861,-41.10261 65.83844,-61.50265 16.85449,-12.43074 56.95511,-36.6995 76.90043,-46.53988 l 18.90916,-9.32917 13.7575,-22.00206 c 45.95508,-73.49485 65.91894,-100.23259 101.00879,-135.2818 45.78697,-45.73395 78.32833,-68.80614 142.29401,-100.88802 36.91619,-18.51526 45.44267,-21.71598 57.84976,-21.71598 11.84856,0 16.4844,3.0595 22.22336,14.66666 6.59328,13.33503 8.82526,27.35324 8.04454,50.52483 -1.05399,31.28159 -7.4559,58.94475 -18.83187,81.37395 -4.26831,8.41551 -4.50757,9.70568 -5.95308,32.10123 -1.19444,18.50553 -2.45716,27.19557 -6.10289,42 -10.48935,42.59475 -22.63691,76.68891 -38.28676,107.45823 l -10.57498,20.79156 4.14244,11.20844 c 6.23802,16.87855 14.2186,45.00786 17.30155,60.98304 8.84211,45.81808 10.34043,110.32243 2.91649,125.55874 -1.94672,3.99529 -2.93718,4.66667 -6.88457,4.66667 -6.39752,0 -6.90463,-0.6929 -39.97873,-54.62557 -12.336,-20.11584 -16.91767,-25.71241 -28.11944,-34.34837 -5.47678,-4.22231 -10.26088,-7.68047 -10.63135,-7.68483 -1.65437,-0.0195 -29.39449,47.98427 -34.57297,59.82781 -13.1102,29.9839 -17.41036,54.619 -17.41636,99.77616 -0.003,24.26191 0.32766,28.94449 2.32957,32.9672 1.28333,2.57876 2.76892,4.70341 3.30131,4.72147 2.55249,0.0865 23.42652,16.37489 24.77352,19.33122 2.05046,4.50028 -0.13734,9.23802 -5.9148,12.80868 l -4.38208,2.70828 4.87797,6.92564 c 16.85227,23.92644 62.39311,59.31979 92.20356,71.65859 15.95309,6.60312 13.13109,8.59487 26.90689,-18.99066 6.70419,-13.42492 19.55719,-38.20895 28.56222,-55.07562 9.00502,-16.86667 19.76254,-37.09789 23.90561,-44.95829 8.51188,-16.14904 14.78307,-23.70838 19.6684,-23.70838 5.12628,0 7.67981,2.77854 9.80981,10.67418 2.07774,7.70189 6.28816,47.00665 6.49798,60.65916 l 0.12293,8 -4.33333,0.41781 -4.33334,0.41781 -0.0107,9.58219 c -0.005,5.2702 -1.52276,16.78219 -3.37098,25.58219 -7.55946,35.99316 -12.61893,71.978 -12.60653,89.66256 0.0107,15.89673 0.30449,17.82902 4.50436,29.67078 4.63788,13.07674 18.87077,48.8026 20.54003,51.5574 0.51902,0.8565 3.2627,4.9622 6.09706,9.1236 6.39919,9.3955 15.5133,30.1403 15.5133,35.3101 0,2.4749 -1.06218,4.6017 -2.96335,5.9333 -3.26875,2.2895 -3.01381,2.2622 -7.70332,0.8243 z"
         id="path1939" />
      <path
         id="path1941"
         style="display:inline;fill:#6f918a;stroke-width:1.33333"
         d="M 587.05859 120.30273 C 582.48788 120.75767 576.57501 122.75819 566.73438 126.72656 C 548.36967 134.13237 497.85542 160.79106 475.84961 174.68945 C 416.27878 212.31316 361.33962 268.83591 320.74414 334.26562 C 314.91972 343.65316 304.86329 359.67934 298.39844 369.87891 C 291.93358 380.07846 286.84721 388.62455 287.09375 388.87109 C 287.34029 389.11762 292.88543 387.51283 299.41797 385.30469 C 312.03191 381.0409 314.66602 381.01977 314.66602 385.18164 C 314.66602 387.06708 312.92986 388.41568 308.33398 390.09766 C 268.0231 404.8505 239.45931 419.22881 202 443.62695 C 164.22413 468.23127 133.08625 495.9385 116.16992 520 L 109.14062 530 L 115.25 530.40625 C 121.35877 530.81311 139.71354 526.25296 160.29492 519.21484 C 187.24912 509.99746 185.8991 510.16849 238 509.38672 L 286 508.66602 L 294 492.66602 C 299.42629 481.81343 302.81217 476.51639 304.52344 476.19922 C 306.82749 475.77218 306.9652 476.33514 306.12305 482.68359 C 304.82207 492.49089 299.33762 505.4026 293.65039 512.04688 L 288.80664 517.70703 L 259.14062 517.02539 L 229.47461 516.34375 L 226.81641 527.83789 C 222.63703 545.90724 221.33398 558.57877 221.33398 581.13672 C 221.33398 634.05084 233.20307 682.30534 259.99609 738.31641 C 279.23431 778.53407 307.6811 817.79101 334.10547 840.58594 C 341.6577 847.10087 341.73139 847.12903 340.91211 843.25195 C 338.89313 833.69741 334.29699 793.25768 335.13477 792.41992 C 337.58733 789.96733 340.33393 796.69238 342.63867 810.79102 C 345.62479 829.05774 349.047 843.09681 351.24414 846.10156 C 352.64044 848.01112 353.17437 847.46941 355.25195 842.0293 C 357.6018 835.8763 357.59136 831.27886 355.20508 819 C 354.00971 812.84894 356.4124 813.5149 361.35938 820.70508 C 367.4801 829.60125 367.69441 833.67995 362.63281 845 C 360.09147 850.68362 357.32285 854.91347 355.83789 855.38477 C 354.45991 855.82213 353.34963 856.58925 353.36914 857.08984 C 353.42264 858.46243 368.26001 868.74734 382.5957 877.34766 C 426.69405 903.8032 476.38828 922.08574 529.55273 931.41602 C 554.25529 935.75125 579.46635 946.66602 564.77734 946.66602 C 562.14959 946.66602 560 946.99084 560 947.38672 C 560 950.68935 579.68289 983.19597 589.43555 996 C 598.20287 1007.5105 625.35699 1034.4435 635.68555 1041.873 C 642.74996 1046.9546 667.80387 1061.2917 669.66602 1061.3184 C 670.21602 1061.3284 670.66602 1061.0219 670.66602 1060.6406 C 670.66602 1058.6742 658.38402 1035.8682 655.44141 1032.3711 C 653.56357 1030.1394 647.61447 1017.2937 642.22266 1003.8242 C 624.69768 960.04446 625.9974 965.3734 626.02344 937.33398 C 626.04784 911.0338 626.70218 905.96948 636.74023 854.4043 C 639.74668 838.9603 641.33398 826.92319 641.33398 819.56641 C 641.33398 807.02617 642.76103 804.39774 648.75586 805.90234 C 651.64832 806.6283 652.09636 806.38061 651.5 804.38477 C 649.2834 796.96636 648.07519 788.3943 647.4043 775.33398 C 646.98993 767.26733 645.89167 757.37569 644.96484 753.35352 L 643.2793 746.04102 L 639.81055 750.6875 C 637.9025 753.24302 627.78192 771.83338 617.32031 792 C 569.48756 884.20631 567.60934 888.09179 570.39844 889.02148 C 571.27974 889.31524 572 890.40643 572 891.44531 C 572 894.73149 557.43508 893.85059 547.03125 889.93555 C 528.48417 882.95611 504.64732 868.37121 482.74414 850.59961 C 467.97097 838.61306 456.92492 827.21553 445.66016 812.33398 C 439.67294 804.42446 437.6722 802.66602 434.65234 802.66602 C 429.30182 802.66602 425.9408 799.13128 422.07812 789.4375 C 418.46726 780.37565 417.91029 777.33398 419.86133 777.33398 C 421.60638 777.33398 428.94701 786.01694 429.99609 789.32227 C 431.59556 794.36173 436.62682 795.06874 444.0625 791.30078 C 447.69477 789.46017 450.66602 787.69379 450.66602 787.375 C 450.66602 787.05623 446.616 784.14873 441.66602 780.91211 C 427.2003 771.45357 418.66602 760.58609 418.66602 751.62695 C 418.66602 748.08605 417.88305 745.72035 416.33398 744.58789 C 414.37435 743.15526 413.92439 740.19547 413.5293 726.10742 C 413.20339 714.48623 413.5106 709.33398 414.5293 709.33398 C 416.46325 709.33398 416.22649 707.95921 417.27734 725.33398 L 418.20508 740.66602 L 418.43555 721.05273 C 419.13606 661.45061 429.98443 629.33175 472.60547 560.66602 C 503.97153 510.13294 533.2584 459.12441 546.55859 431.86523 C 560.37781 403.54237 567.97398 383.12465 578.25195 346.67188 C 584.62348 324.07403 585.67869 318.63945 586.30078 305.19727 C 587.23479 285.01547 587.60041 285.33398 563.33594 285.33398 C 548.45401 285.33398 543.52407 285.92211 529.30078 289.40234 C 520.15253 291.6408 504.72494 294.9433 495.01953 296.74023 C 471.45174 301.10379 460.73444 305.19397 454.33398 312.26367 C 451.584 315.30123 449.33398 318.22526 449.33398 318.76172 C 449.33398 319.29819 447.23266 320.97588 444.66602 322.49023 C 442.09935 324.0046 439.98924 326.01369 439.97656 326.95508 C 439.94866 329.02226 434.21604 334.66602 432.14453 334.66602 C 429.54797 334.66602 430.51327 328.17561 433.33398 326.66602 C 434.80065 325.88108 436 324.58647 436 323.78906 C 436 322.99164 439.48635 318.61242 443.74805 314.05664 C 448.00973 309.50088 453.35165 302.48893 455.61719 298.47461 C 460.0805 290.56604 473.42684 277.93801 485.33398 270.35742 C 509.79261 254.78606 544.16696 242.66602 563.875 242.66602 C 576.60336 242.66602 592 249.82678 592 255.74609 C 592 259.76913 595.85718 254.40951 599.80078 244.9082 C 610.59164 218.90986 615.97244 178.65894 611.40234 158.11719 C 610.13558 152.42333 608.22616 145.67512 607.1582 143.11914 C 606.09024 140.56315 605.58516 137.30675 606.03711 135.88281 C 607.23088 132.12155 601.7388 124.03411 596.50586 121.84766 C 594.70629 121.09575 593.03903 120.58234 591.27734 120.34766 C 589.95608 120.17164 588.58216 120.15109 587.05859 120.30273 z M 595.08789 126.66992 C 600.63133 126.66692 604 128.95417 604 132.72461 C 604 135.93214 603.80124 136.00027 596.76953 135.17383 C 590.05822 134.38504 588.80711 134.71839 579.33398 139.82812 C 567.95232 145.96733 566.92585 146.2269 565.78125 143.24414 C 565.34022 142.09485 565.50888 140.65551 566.15625 140.04688 C 569.33355 137.05964 591.80067 126.67201 595.08789 126.66992 z M 562.99414 143.11719 C 563.36321 143.11753 563.64006 143.19474 563.80469 143.35938 C 565.12231 144.67699 561.97577 148.57634 557.90039 150.67578 C 555.75531 151.78084 551.82899 154.03084 549.17578 155.67578 C 543.67263 159.08765 541.33398 159.44976 541.33398 156.88867 C 541.33398 153.7765 558.63907 143.11317 562.99414 143.11719 z M 529.77734 163.29883 C 530.24436 163.27144 530.59944 163.39827 530.86914 163.66797 C 531.94793 164.74676 527.05619 170.28013 512.68359 184.23828 C 493.9836 202.39906 489.33398 206.07832 489.33398 202.70898 C 489.33398 200.31872 513.5074 174.54802 521.80273 168.0957 C 525.96392 164.85905 528.37631 163.38099 529.77734 163.29883 z M 531.70703 177.40039 C 532.85286 177.40146 534.45476 177.90182 536.60352 178.88086 C 539.25584 180.08934 540 181.40333 540 184.88086 C 540 188.44461 539.4683 189.33398 537.33398 189.33398 C 535.55623 189.33398 534.66602 188.44378 534.66602 186.66602 C 534.66602 184.88825 533.77777 184 532 184 C 530.04444 184 529.33398 183.11044 529.33398 180.66602 C 529.33398 178.46367 530.03235 177.39882 531.70703 177.40039 z M 453.11328 238.10742 C 453.46373 238.10286 453.71304 238.2021 453.84766 238.41992 C 454.63168 239.6885 423.44293 269.33398 421.32422 269.33398 C 420.59547 269.33398 420 268.19934 420 266.8125 C 420 261.85143 447.85651 238.17581 453.11328 238.10742 z M 416.66602 270.66602 C 417.766 270.66602 418.66602 271.26666 418.66602 272 C 418.66602 272.73333 417.766 273.33398 416.66602 273.33398 C 415.56602 273.33398 414.66602 272.73333 414.66602 272 C 414.66602 271.26666 415.56602 270.66602 416.66602 270.66602 z M 412.36914 274.84961 C 413.09517 274.84679 413.36637 275.5013 413.12695 276.73633 C 412.87359 278.04334 411.85974 279.38042 410.87305 279.70898 C 409.72554 280.09109 409.2444 279.45167 409.53906 277.93164 C 409.79242 276.62463 410.80823 275.28559 411.79492 274.95703 C 412.01008 274.88539 412.2016 274.85026 412.36914 274.84961 z M 405.69336 283.73633 C 406.30961 283.75989 406.66602 284.08489 406.66602 284.76172 C 406.66602 285.18038 402.81992 289.82909 398.11914 295.09375 C 393.41839 300.35839 385.766 309.71725 381.11328 315.89062 C 372.7459 326.99273 369.33398 330.01431 369.33398 326.31836 C 369.33398 323.77279 388.04722 298.29276 395.76172 290.33398 C 399.66101 286.31123 403.84462 283.66565 405.69336 283.73633 z M 342.96875 317.81055 C 343.62415 317.78679 344.59525 318.83652 346.46094 321.25586 C 351.4467 327.7212 356.58159 332.75738 367.88086 342.26953 C 379.1094 351.72212 384.82972 354.78621 392.94727 355.70117 C 397.89486 356.25884 398.66602 356.77274 398.66602 359.50586 C 398.66602 361.9672 397.94721 362.66602 395.41211 362.66602 C 393.62205 362.66602 391.78721 362.06732 391.33398 361.33398 C 390.88076 360.60067 388.13334 360 385.22852 360 C 380.56697 360 378.32478 358.66351 366.13477 348.62109 C 351.28472 336.38733 340.3831 322.98105 342.00586 318.94727 C 342.29609 318.22583 342.57551 317.8248 342.96875 317.81055 z M 334.31641 336.21094 C 335.44632 336.08719 337.61089 338.51141 341.12109 343.66602 C 343.99259 347.88266 347.61606 352.47605 349.17188 353.87305 C 350.72769 355.27004 352 357.22069 352 358.20703 C 352 361.24605 347.3473 360.19381 343.71875 356.33398 C 338.04775 350.30154 333.33398 342.49869 333.33398 339.14648 C 333.33398 337.27589 333.63846 336.28519 334.31641 336.21094 z M 324.95508 343.92383 C 326.96669 344.09324 329.97345 347.9411 332.57227 354.66602 C 335.6639 362.66624 338.01136 365.08796 341.94531 364.33594 C 344.68291 363.8126 345.04532 364.14343 344.41016 366.57227 C 343.44408 370.26659 346.75743 373.91193 355.66602 378.95703 C 359.516 381.13736 362.66602 383.46362 362.66602 384.12695 C 362.66602 384.79028 363.86734 385.33398 365.33398 385.33398 C 367.11176 385.33398 368 386.22223 368 388 C 368 389.77777 367.11176 390.66602 365.33398 390.66602 C 363.86734 390.66602 362.66602 389.82235 362.66602 388.79102 C 362.66602 387.57661 361.73275 387.16086 360.01758 387.60938 C 357.24154 388.33532 346.32828 382.11503 342.01562 377.34961 C 340.71156 375.90861 339.12361 375.0507 338.48828 375.44336 C 335.8768 377.05734 337.67731 379.63459 343.33398 382.38281 C 347.49261 384.40323 349.33398 386.12214 349.33398 387.98242 C 349.33398 391.62962 342.11222 391.61981 336.66602 387.96484 C 333.65295 385.94282 331.43232 385.47943 327.66602 386.08984 C 322.23128 386.97064 321.85335 386.59976 324.26367 382.74023 C 325.5876 380.6203 325.24528 378.9653 322.26367 373.07227 C 320.28515 369.16178 318.66602 365.51993 318.66602 364.98047 C 318.66602 362.55681 323.8532 364.36847 327.3418 368.00977 C 331.97737 372.84825 335.56102 371.24864 331.05664 366.35156 C 325.9367 360.78527 322.67689 354.03999 322.67188 349 C 322.66822 345.41449 323.57871 343.80792 324.95508 343.92383 z M 355.24023 362.66602 C 357.77358 362.66602 366.0613 367.76796 370.94727 372.33398 C 373.6457 374.85573 376.29659 376 379.43555 376 C 382.60363 376 384 376.61173 384 378 C 384 379.44444 382.51785 380 378.66602 380 C 375.73268 380 373.33398 379.35893 373.33398 378.57617 C 373.33398 377.74843 372.19052 377.51716 370.60156 378.02148 C 367.44152 379.02444 362.59129 376.2082 357.07617 370.16992 C 352.99187 365.69819 352.2497 362.66602 355.24023 362.66602 z M 534.92969 472.03516 C 534.41842 472.05466 530.04065 478.80468 525.20117 487.03516 C 520.36169 495.26563 509.36958 513.85675 500.77344 528.34766 C 492.17729 542.83857 485.33663 555.47659 485.57227 556.43164 C 485.80791 557.38669 491.19701 562.77606 497.54883 568.41016 C 512.00975 581.23706 515.23336 585.65745 534.98242 619.72266 C 555.93164 655.85802 555.19662 654.64847 556.22266 654.6582 C 556.71189 654.6622 557.72304 651.81732 558.46875 648.33398 C 562.34118 630.2452 561.46257 583.84118 556.63281 551.31445 C 553.14803 527.84567 537.83939 471.92405 534.92969 472.03516 z M 304 522.66602 C 304.73333 522.66602 305.33398 524.46602 305.33398 526.66602 C 305.33398 528.866 304.73333 530.66602 304 530.66602 C 303.26667 530.66602 302.66602 528.866 302.66602 526.66602 C 302.66602 524.46602 303.26667 522.66602 304 522.66602 z M 301.79688 537.98242 C 302.00873 537.95796 302.18461 538.114 302.3125 538.46094 C 303.47314 541.60956 299.90456 596.60704 298.44922 598 C 297.48179 598.92594 297.24553 590.98177 297.67578 572 C 298.07503 554.38634 298.89123 543.24362 299.97266 540.66602 C 300.6867 538.96408 301.33078 538.03624 301.79688 537.98242 z M 297.33398 604 C 298.06732 604 298.66602 604.9 298.66602 606 C 298.66602 607.1 298.06732 608 297.33398 608 C 296.60067 608 296 607.1 296 606 C 296 604.9 296.60067 604 297.33398 604 z M 298.25195 619.93555 C 298.73482 619.85237 299.30572 620.14421 299.94922 620.84961 C 300.52646 621.48238 301.96757 633.74894 303.15234 648.10938 C 305.90765 681.50606 309.60582 706.95523 314.79297 728.20312 C 319.25108 746.46481 319.55711 752.51603 315.72461 746.66602 C 312.6714 742.00551 307.31839 721.07801 304.13086 701.33398 C 301.80651 686.93669 300.4808 674.23693 296.6543 629.76172 C 296.14211 623.80852 296.80336 620.18509 298.25195 619.93555 z M 416 698.66602 C 416.73333 698.66602 417.33398 700.13182 417.33398 701.92188 C 417.33398 703.71191 416.73333 705.54677 416 706 C 415.22211 706.48077 414.66602 705.12569 414.66602 702.74609 C 414.66602 700.50283 415.26667 698.66602 416 698.66602 z M 331.97266 774.98633 C 333.99265 775.07265 337.33398 782.5467 337.33398 787.29102 C 337.33398 791.84303 334.05656 791.63046 332.11914 786.95312 C 329.92683 781.66042 329.7108 775.72602 331.68555 775.02734 C 331.77795 774.99465 331.87331 774.98208 331.97266 774.98633 z M 432.52148 854.35352 C 433.5646 854.37932 435.20763 854.91546 437.40625 856.03711 C 441.3958 858.07243 442.66602 859.52005 442.66602 862.02734 C 442.66602 866.58903 439.99931 866.16692 434.7793 860.78125 C 430.83142 856.70807 430.22663 854.29674 432.52148 854.35352 z M 445.20508 868.11719 C 447.08393 868.23646 450.88075 873.18256 455.00977 881.04297 C 462.75567 895.78887 464.60152 898.67038 466 898.19727 C 467.43369 897.71225 467.39392 892.75761 465.89844 885.45312 C 464.78114 879.99571 464.81433 880.00357 480.92773 888.77734 C 490.45412 893.96447 500 902.4025 500 905.63672 C 500 908.43477 493.00428 906.03903 485.73828 900.75195 C 477.77262 894.95576 476 894.51805 476 898.34961 C 476 899.39752 474.75879 901.99711 473.24219 904.12695 C 469.82461 908.92649 465.06923 909.19031 460.70117 904.82227 C 454.98512 899.1062 442.32132 870.56931 444.52344 868.36719 C 444.70901 868.18162 444.93667 868.10015 445.20508 868.11719 z " />
      <path
         style="display:inline;fill:#ff0000;stroke-width:1.33333"
         d="m 488.14029,283.33334 c 4.33922,-3.3 8.21144,-6 8.60494,-6 0.39349,0 2.17605,1.57604 3.96126,3.50231 3.1928,3.44509 3.30611,3.46388 6.93634,1.15073 2.02977,-1.29336 4.9913,-3.9194 6.58117,-5.83564 l 2.89067,-3.48407 3.93996,3.75386 3.93996,3.75385 5.16937,-4.74748 c 5.99228,-5.50323 6.99493,-5.69648 10.86221,-2.09356 3.77423,3.51623 4.72266,3.39107 10.10346,-1.33333 2.50565,-2.2 5.07653,-3.99042 5.71306,-3.97871 0.63652,0.012 3.17867,1.80303 5.6492,3.98069 4.2564,3.75182 6.84144,4.17994 6.84144,1.13306 0,-1.76163 5.48684,-6.36591 7.65538,-6.42402 0.91045,-0.0244 2.40477,1.15564 3.32072,2.62231 2.14198,3.42987 3.69057,3.40208 3.69057,-0.0662 0,-3.19088 -3.58411,-10.60046 -5.12757,-10.60046 -0.58251,0 -3.51248,2.1 -6.51106,4.66667 -2.99857,2.56667 -6.07602,4.66667 -6.8388,4.66667 -0.76277,0 -3.00854,-2.12614 -4.9906,-4.72474 l -3.60373,-4.72474 -3.89452,4.72474 c -2.14199,2.5986 -4.41692,4.72474 -5.05541,4.72474 -0.63848,0 -2.19891,-1.75724 -3.46762,-3.90499 -1.2687,-2.14775 -3.35589,-4.17936 -4.6382,-4.51469 -2.38301,-0.62318 -9.20582,5.30302 -9.20582,7.99604 0,0.78674 -0.88796,2.16738 -1.97324,3.06809 -1.6089,1.33527 -2.74427,0.98885 -6.14918,-1.87619 -4.80958,-4.047 -6.13112,-3.48186 -11.40898,4.87883 -3.72723,5.90431 -5.3847,6.16837 -10.59455,1.68787 -4.89981,-4.21387 -5.37208,-4.18123 -9.6246,0.66504 -1.93047,2.2 -4.16408,4 -4.96357,4 -2.08238,0 -8.83375,7.34103 -7.74899,8.42577 1.38304,1.38306 1.50256,1.3218 9.93673,-5.09244 z"
         id="path1987" />
      <path
         id="path2005"
         style="display:inline;fill:#ffeeaa;stroke-width:1.33333"
         d="M 565.39844 250.88086 C 558.72687 250.92112 557.69239 253.76733 562.47852 259 C 564.32308 261.01666 566.09025 262.66602 566.40625 262.66602 C 566.72224 262.66602 569.07667 260.82782 571.63672 258.58008 C 575.98103 254.76572 576.10462 254.44438 573.49414 253.76172 C 571.9558 253.35943 570.97788 252.57482 571.32227 252.01758 C 571.66665 251.46034 569.30004 250.94975 566.0625 250.88477 C 565.83556 250.88021 565.61365 250.87956 565.39844 250.88086 z M 555.25977 251.21289 C 553.44466 251.20253 547.25726 252.60578 542.80859 254.10352 C 541.44765 254.5617 541.97378 255.75113 544.77539 258.55273 L 548.59961 262.37695 L 552.46094 257.12695 C 554.58448 254.23938 556.06487 251.6215 555.75195 251.30859 C 555.68891 251.24555 555.51907 251.21437 555.25977 251.21289 z M 531.71484 257.55859 C 530.73551 257.57044 528.32891 258.2749 525.92969 259.27734 C 521.00349 261.33565 520.97326 261.3931 523.42969 264.10742 L 525.91602 266.85352 L 529.54297 262.42773 C 531.53766 259.99295 532.66296 257.81935 532.04297 257.59766 C 531.96547 257.56994 531.85475 257.5569 531.71484 257.55859 z M 509.74805 266.8457 C 509.12747 266.87118 507.79288 267.34313 505.5332 268.13086 C 501.37732 269.5796 500.50007 270.72273 502.22266 272.44531 C 503.98398 274.20664 506.40159 273.27113 508.54492 270 C 510.03606 267.72424 510.65504 266.80846 509.74805 266.8457 z M 576.67188 272.64453 C 576.26869 272.6697 575.8207 272.92966 575.25586 273.39844 C 572.88712 275.36432 573.98922 277.33398 577.45898 277.33398 C 579.70817 277.33398 579.87867 276.92988 578.62109 274.58008 C 577.88819 273.21064 577.34385 272.60258 576.67188 272.64453 z M 557.54492 274.01367 C 556.43038 274.00782 555.18685 274.21618 553.98828 274.67188 C 549.23202 276.48021 549.8774 277.33398 556 277.33398 C 558.93333 277.33398 561.33398 276.79745 561.33398 276.14258 C 561.33398 274.81417 559.67268 274.02485 557.54492 274.01367 z M 537.93945 276.60352 C 536.93103 276.61385 535.54541 277.10068 534.37305 277.92188 C 531.22483 280.12696 533.24547 280.63019 537.91211 278.80273 C 539.68149 278.10984 539.99553 277.4887 538.91406 276.82031 C 538.6703 276.66966 538.33405 276.59947 537.93945 276.60352 z M 518.60742 280.02148 C 517.42111 279.98912 515.74154 280.70406 514.66602 282 C 512.90635 284.12028 514.21199 284.60303 517.89062 283.19141 C 519.0506 282.74629 520 281.84629 520 281.19141 C 520 280.41638 519.41911 280.04363 518.60742 280.02148 z M 496.66602 283.31055 C 496.23802 283.30216 495.67591 283.62275 494.84375 284.25586 C 493.64606 285.16706 492.41689 286.08156 492.11133 286.28906 C 491.80578 286.49657 493.13581 286.66602 495.06836 286.66602 C 497.66998 286.66602 498.38066 286.13885 497.80273 284.63281 C 497.4647 283.75189 497.15108 283.32005 496.66602 283.31055 z " />
      <path
         style="display:inline;fill:#ffff00;stroke-width:1.33333"
         d="m 468.26667,203.73334 c -0.88,-0.88 -1.6,-4.83737 -1.6,-8.79417 0,-9.85879 3.56761,-14.93916 10.49078,-14.93916 6.048,0 8.1852,1.90636 8.1466,7.26666 -0.0392,5.44362 -4.42954,14.83816 -7.7697,16.62576 -3.5359,1.89235 -7.28052,1.82807 -9.26768,-0.15909 z"
         id="path1975" />
    </g>
  </g>
</svg>
